<?xml version="1.0" encoding="UTF-8"?>
<svg id="Layer_1" xmlns="http://www.w3.org/2000/svg" version="1.1" viewBox="0 0 32 32">
  <!-- Generator: Adobe Illustrator 29.7.1, SVG Export Plug-In . SVG Version: 2.1.1 Build 8)  -->
  <defs>
    <style>
      .st0 {
        fill: #8134af;
      }

      .st1 {
        fill: #515bd4;
      }
    </style>
  </defs>
  <path class="st0" d="M8.55,9.36c0-1.9-1.54-3.44-3.44-3.44s-3.44,1.54-3.44,3.44,1.54,3.44,3.44,3.44,3.44-1.54,3.44-3.44Z"/>
  <path class="st0" d="M11.42,18.36c.46.47,1.2,1.01,2.31,1.25v-3.15c-.06-.05-.13-.09-.19-.15-.47-.47-.56-1.27-.56-1.56V5.92h-2.95v8.79c0,.22-.02,2.2,1.39,3.65Z"/>
  <path class="st1" d="M17.35,15h6.08v-2.95h-5.17v-2.95h5.17v-2.95h-8.12v6.82c0,1.12.91,2.04,2.04,2.04h0Z"/>
  <path class="st0" d="M16.41,23.13c-3.22,0-5.7-.87-7.37-2.6-2.22-2.3-2.43-5.51-2.45-6.31v-.24h-1.41l-1.54-.06v11.84h2.95v-3.53c.1.11.2.22.3.33,2.25,2.34,5.45,3.52,9.52,3.52,3.57,0,9.93-1.85,11.48-8.43h-3.07c-1.71,5.26-7.64,5.47-8.41,5.48Z"/>
  <path class="st1" d="M28.24,12.6h2.09v-2.95h-2.09v-3.73h-2.95v8.58c0,.82-.08,1.56-.22,2.23h3c.11-.7.17-1.43.17-2.23v-1.9Z"/>
</svg>