<?xml version="1.0" encoding="UTF-8"?>
<svg id="Layer_1" xmlns="http://www.w3.org/2000/svg" version="1.1" viewBox="0 0 113.57 87.01">
  <!-- Generator: Adobe Illustrator 29.7.1, SVG Export Plug-In . SVG Version: 2.1.1 Build 8)  -->
  <defs>
    <style>
      .st0 {
        fill: #004d61;
      }

      .st1 {
        fill: #432817;
      }

      .st2 {
        fill: #c1121f;
      }

      .st3 {
        fill: #8134af;
      }

      .st4 {
        fill: #515bd4;
      }

      .st5 {
        fill: #f15a29;
      }

      .st6 {
        fill: #780001;
      }

      .st7 {
        fill: #be1e2d;
      }

      .st8 {
        fill: #404041;
      }

      .st9 {
        fill: #2b388f;
      }

      .st10 {
        fill: #348498;
      }

      .st11 {
        fill: #98582a;
      }

      .st12 {
        fill: #262261;
      }
    </style>
  </defs>
  <g>
    <g>
      <circle class="st9" cx="-24.85" cy="-123.89" r="3.86"/>
      <path class="st9" d="M-17.76-113.78c.51.53,1.35,1.13,2.6,1.41v-3.54c-.07-.05-.15-.1-.21-.16-.52-.53-.63-1.42-.63-1.75v-9.92h-3.32v9.87c0,.25-.02,2.47,1.56,4.1Z"/>
      <path class="st12" d="M-11.1-117.55h6.83v-3.32h-5.8v-3.32h5.8v-3.32h-9.12v7.66c0,1.26,1.03,2.29,2.29,2.29Z"/>
      <path class="st9" d="M-12.16-108.42c-3.62,0-6.4-.98-8.28-2.92-2.5-2.58-2.73-6.19-2.75-7.09v-.27h-1.58l-1.73-.06s0,.17,0,.4v12.9h3.32v-3.96c.11.12.22.25.34.37,2.52,2.62,6.12,3.96,10.69,3.96,4.01,0,11.15-2.08,12.89-9.46h-3.45c-1.92,5.9-8.57,6.14-9.44,6.15Z"/>
      <path class="st12" d="M1.12-120.24h2.35v-3.32H1.12v-4.19h-3.32v9.64c0,.92-.09,1.75-.25,2.5H.92c.12-.78.19-1.61.19-2.5v-2.13Z"/>
    </g>
    <g>
      <path class="st8" d="M20.46-110.76c-1.58-1.29-2.68-2.85-3.43-4.79-.59,1.93-1.82,3.73-3.53,5.12l-1.23-1.08c2.3-1.76,3.93-4.65,3.93-7.97v-5.82h1.63v5.82c0,3.34,1.56,5.93,3.62,7.51l-.99,1.21ZM22.83-109.68v-8.58h-2.88v-1.41h2.88v-6.13h1.58v16.13h-1.58ZM26.56-109.42v-16.38h1.56v16.38h-1.56Z"/>
      <path class="st8" d="M38.19-114.32v5.09h-1.58v-5.09h-7.57v-1.36h16.71v1.36h-7.57ZM30.6-117.81v-7.66h13.59v7.66h-13.59ZM42.6-124.11h-10.41v4.96h10.41v-4.96Z"/>
      <path class="st8" d="M45.66-110.26v-1.36h16.71v1.36h-16.71ZM59.22-114.03v-9.9h-12.27v-1.38h13.87v11.28h-1.6Z"/>
      <path class="st8" d="M71.47-116.47v1.73h-1.65v-1.73h-7.53v-1.3h16.71v1.3h-7.53ZM63.76-109.51v-5.88h1.58v1.54h10.6v-1.54h1.58v5.88h-13.76ZM63.83-119.03v-4h12.01v-1.43h-12.01v-1.29h13.61v3.97h-12.01v1.45h12.27v1.3h-13.87ZM75.93-112.54h-10.6v1.71h10.6v-1.71Z"/>
      <path class="st9" d="M93.33-120.68c0,2.28-1.78,4.22-5.16,4.22s-5.2-1.95-5.2-4.22v-1.07c0-2.24,1.78-4.21,5.2-4.21s5.16,1.97,5.16,4.21v1.07ZM97.64-109.13c-2.7-.42-4.87-1.6-6.21-3.16-1.34,1.56-3.51,2.74-6.21,3.16l-1.36-2.02c3.49-.55,6.17-2.24,6.17-3.89v-.83h2.79v.83c0,1.65,2.68,3.34,6.17,3.89l-1.36,2.02ZM90.59-121.56c0-1.19-.77-2.15-2.42-2.15s-2.44.96-2.44,2.15v.7c0,1.23.75,2.17,2.44,2.17s2.42-.94,2.42-2.17v-.7ZM95.33-115.19v-10.67h2.74v10.67h-2.74Z"/>
      <path class="st9" d="M99.5-110.74v-14.51h9.57v2.3h-6.85v9.94h7.86v2.28h-10.58ZM111.05-109.36v-16.49h2.75v6.19h2.3v2.35h-2.3v7.95h-2.75Z"/>
    </g>
  </g>
  <g>
    <g>
      <circle class="st1" cx="199.69" cy="-194.74" r="3.86" transform="translate(50.08 40.67) rotate(-13.28)"/>
      <path class="st1" d="M206.77-184.63c.51.53,1.35,1.13,2.6,1.41v-3.54c-.07-.05-.15-.1-.21-.16-.52-.53-.63-1.42-.63-1.75v-9.92h-3.32v9.87c0,.25-.02,2.47,1.56,4.1Z"/>
      <path class="st11" d="M213.43-188.4h6.83v-3.32h-5.8v-3.32h5.8v-3.32h-9.12v7.66c0,1.26,1.03,2.29,2.29,2.29Z"/>
      <path class="st1" d="M212.37-179.28c-3.62,0-6.4-.98-8.28-2.92-2.5-2.58-2.73-6.19-2.75-7.09v-.27h-1.58l-1.73-.06s0,.17,0,.4v12.9h3.32v-3.96c.11.12.22.25.34.37,2.52,2.62,6.12,3.96,10.69,3.96,4.01,0,11.15-2.08,12.89-9.46h-3.45c-1.92,5.9-8.57,6.14-9.44,6.15Z"/>
      <path class="st11" d="M225.65-191.09h2.35v-3.32h-2.35v-4.19h-3.32v9.64c0,.92-.09,1.75-.25,2.5h3.37c.12-.78.19-1.61.19-2.5v-2.13Z"/>
    </g>
    <g>
      <path class="st8" d="M245-181.61c-1.58-1.29-2.68-2.85-3.43-4.79-.59,1.93-1.82,3.73-3.53,5.12l-1.23-1.08c2.3-1.76,3.93-4.65,3.93-7.97v-5.82h1.63v5.82c0,3.34,1.56,5.93,3.62,7.51l-.99,1.21ZM247.37-180.53v-8.58h-2.88v-1.41h2.88v-6.13h1.58v16.13h-1.58ZM251.1-180.27v-16.38h1.56v16.38h-1.56Z"/>
      <path class="st8" d="M262.72-185.17v5.09h-1.58v-5.09h-7.57v-1.36h16.71v1.36h-7.57ZM255.14-188.66v-7.66h13.59v7.66h-13.59ZM267.13-194.96h-10.41v4.96h10.41v-4.96Z"/>
      <path class="st8" d="M270.2-181.11v-1.36h16.71v1.36h-16.71ZM283.75-184.88v-9.9h-12.27v-1.38h13.87v11.28h-1.6Z"/>
      <path class="st8" d="M296-187.32v1.73h-1.65v-1.73h-7.53v-1.3h16.71v1.3h-7.53ZM288.29-180.36v-5.88h1.58v1.54h10.6v-1.54h1.58v5.88h-13.76ZM288.36-189.88v-4h12.01v-1.43h-12.01v-1.29h13.61v3.97h-12.01v1.45h12.27v1.3h-13.87ZM300.47-183.39h-10.6v1.71h10.6v-1.71Z"/>
      <path class="st1" d="M317.86-191.53c0,2.28-1.78,4.22-5.16,4.22s-5.2-1.95-5.2-4.22v-1.07c0-2.24,1.78-4.21,5.2-4.21s5.16,1.97,5.16,4.21v1.07ZM322.18-179.98c-2.7-.42-4.87-1.6-6.21-3.16-1.34,1.56-3.51,2.74-6.21,3.16l-1.36-2.02c3.49-.55,6.17-2.24,6.17-3.89v-.83h2.79v.83c0,1.65,2.68,3.34,6.17,3.89l-1.36,2.02ZM315.12-192.41c0-1.19-.77-2.15-2.42-2.15s-2.44.96-2.44,2.15v.7c0,1.23.75,2.17,2.44,2.17s2.42-.94,2.42-2.17v-.7ZM319.86-186.04v-10.67h2.74v10.67h-2.74Z"/>
      <path class="st1" d="M324.03-181.59v-14.51h9.57v2.3h-6.85v9.94h7.86v2.28h-10.58ZM335.58-180.21v-16.49h2.75v6.19h2.3v2.35h-2.3v7.95h-2.75Z"/>
    </g>
  </g>
  <g>
    <g>
      <circle class="st6" cx="194.76" cy="-46.91" r="3.86" transform="translate(15.99 43.49) rotate(-13.28)"/>
      <path class="st6" d="M201.85-36.81c.51.53,1.35,1.13,2.6,1.41v-3.54c-.07-.05-.15-.1-.21-.16-.52-.53-.63-1.42-.63-1.75v-9.92h-3.32v9.87c0,.25-.02,2.47,1.56,4.1Z"/>
      <path class="st2" d="M208.5-40.58h6.83v-3.32h-5.8v-3.32h5.8v-3.32h-9.12v7.66c0,1.26,1.03,2.29,2.29,2.29Z"/>
      <path class="st6" d="M207.44-31.45c-3.62,0-6.4-.98-8.28-2.92-2.5-2.58-2.73-6.19-2.75-7.09v-.27h-1.58l-1.73-.06s0,.17,0,.4v12.9h3.32v-3.96c.11.12.22.25.34.37,2.52,2.62,6.12,3.96,10.69,3.96,4.01,0,11.15-2.08,12.89-9.46h-3.45c-1.92,5.9-8.57,6.14-9.44,6.15Z"/>
      <path class="st2" d="M220.72-43.27h2.35v-3.32h-2.35v-4.19h-3.32v9.64c0,.92-.09,1.75-.25,2.5h3.37c.12-.78.19-1.61.19-2.5v-2.13Z"/>
    </g>
    <g>
      <path class="st8" d="M240.07-33.79c-1.58-1.29-2.68-2.85-3.43-4.79-.59,1.93-1.82,3.73-3.53,5.12l-1.23-1.08c2.3-1.76,3.93-4.65,3.93-7.97v-5.82h1.63v5.82c0,3.34,1.56,5.93,3.62,7.51l-.99,1.21ZM242.44-32.7v-8.58h-2.88v-1.41h2.88v-6.13h1.58v16.13h-1.58ZM246.17-32.45v-16.38h1.56v16.38h-1.56Z"/>
      <path class="st8" d="M257.8-37.35v5.09h-1.58v-5.09h-7.57v-1.36h16.71v1.36h-7.57ZM250.21-40.84v-7.66h13.59v7.66h-13.59ZM262.2-47.14h-10.41v4.96h10.41v-4.96Z"/>
      <path class="st8" d="M265.27-33.29v-1.36h16.71v1.36h-16.71ZM278.83-37.06v-9.9h-12.27v-1.38h13.87v11.28h-1.6Z"/>
      <path class="st8" d="M291.08-39.5v1.73h-1.65v-1.73h-7.53v-1.3h16.71v1.3h-7.53ZM283.36-32.54v-5.88h1.58v1.54h10.6v-1.54h1.58v5.88h-13.76ZM283.44-42.05v-4h12.01v-1.43h-12.01v-1.29h13.61v3.97h-12.01v1.45h12.27v1.3h-13.87ZM295.54-35.57h-10.6v1.71h10.6v-1.71Z"/>
      <path class="st6" d="M312.93-43.71c0,2.28-1.78,4.22-5.16,4.22s-5.2-1.95-5.2-4.22v-1.07c0-2.24,1.78-4.21,5.2-4.21s5.16,1.97,5.16,4.21v1.07ZM317.25-32.15c-2.7-.42-4.87-1.6-6.21-3.16-1.34,1.56-3.51,2.74-6.21,3.16l-1.36-2.02c3.49-.55,6.17-2.24,6.17-3.89v-.83h2.79v.83c0,1.65,2.68,3.34,6.17,3.89l-1.36,2.02ZM310.2-44.59c0-1.19-.77-2.15-2.42-2.15s-2.44.96-2.44,2.15v.7c0,1.23.75,2.17,2.44,2.17s2.42-.94,2.42-2.17v-.7ZM314.93-38.21v-10.67h2.74v10.67h-2.74Z"/>
      <path class="st6" d="M319.1-33.77v-14.51h9.57v2.3h-6.85v9.94h7.86v2.28h-10.58ZM330.66-32.39v-16.49h2.75v6.19h2.3v2.35h-2.3v7.95h-2.75Z"/>
    </g>
  </g>
  <g>
    <g>
      <path class="st0" d="M-7.39-79.8c0-2.13-1.73-3.86-3.86-3.86s-3.86,1.73-3.86,3.86,1.73,3.86,3.86,3.86,3.86-1.73,3.86-3.86Z"/>
      <path class="st0" d="M-4.17-69.7c.51.53,1.35,1.13,2.6,1.41v-3.54c-.07-.05-.15-.1-.21-.16-.52-.53-.63-1.42-.63-1.75v-9.92h-3.32v9.87c0,.25-.02,2.47,1.56,4.1Z"/>
      <path class="st10" d="M2.49-73.47h6.83v-3.32H3.52v-3.32h5.8v-3.32H.2v7.66c0,1.26,1.03,2.29,2.29,2.29Z"/>
      <path class="st0" d="M1.43-64.34c-3.62,0-6.4-.98-8.28-2.92-2.5-2.58-2.73-6.19-2.75-7.09v-.27h-1.58l-1.73-.06s0,.17,0,.4v12.9h3.32v-3.96c.11.12.22.25.34.37,2.52,2.62,6.12,3.96,10.69,3.96,4.01,0,11.15-2.08,12.89-9.46h-3.45c-1.92,5.9-8.57,6.14-9.44,6.15Z"/>
      <path class="st10" d="M14.71-76.15h2.35v-3.32h-2.35v-4.19h-3.32v9.64c0,.92-.09,1.75-.25,2.5h3.37c.12-.78.19-1.61.19-2.5v-2.13Z"/>
    </g>
    <g>
      <path class="st8" d="M34.06-66.67c-1.58-1.29-2.68-2.85-3.43-4.79-.59,1.93-1.82,3.73-3.53,5.12l-1.23-1.08c2.3-1.76,3.93-4.65,3.93-7.97v-5.82h1.63v5.82c0,3.34,1.56,5.93,3.62,7.51l-.99,1.21ZM36.43-65.59v-8.58h-2.88v-1.41h2.88v-6.13h1.58v16.13h-1.58ZM40.15-65.33v-16.38h1.56v16.38h-1.56Z"/>
      <path class="st8" d="M51.78-70.23v5.09h-1.58v-5.09h-7.57v-1.36h16.71v1.36h-7.57ZM44.19-73.72v-7.66h13.59v7.66h-13.59ZM56.19-80.02h-10.41v4.96h10.41v-4.96Z"/>
      <path class="st8" d="M59.26-66.18v-1.36h16.71v1.36h-16.71ZM72.81-69.94v-9.9h-12.27v-1.38h13.87v11.28h-1.6Z"/>
      <path class="st8" d="M85.06-72.38v1.73h-1.65v-1.73h-7.53v-1.3h16.71v1.3h-7.53ZM77.35-65.42v-5.88h1.58v1.54h10.6v-1.54h1.58v5.88h-13.76ZM77.42-74.94v-4h12.01v-1.43h-12.01v-1.29h13.61v3.97h-12.01v1.45h12.27v1.3h-13.87ZM89.52-68.45h-10.6v1.71h10.6v-1.71Z"/>
      <path class="st0" d="M106.92-76.59c0,2.28-1.78,4.22-5.16,4.22s-5.2-1.95-5.2-4.22v-1.07c0-2.24,1.78-4.21,5.2-4.21s5.16,1.97,5.16,4.21v1.07ZM111.23-65.04c-2.7-.42-4.87-1.6-6.21-3.16-1.34,1.56-3.51,2.74-6.21,3.16l-1.36-2.02c3.49-.55,6.17-2.24,6.17-3.89v-.83h2.79v.83c0,1.65,2.68,3.34,6.17,3.89l-1.36,2.02ZM104.18-77.47c0-1.19-.77-2.15-2.42-2.15s-2.44.96-2.44,2.15v.7c0,1.23.75,2.17,2.44,2.17s2.42-.94,2.42-2.17v-.7ZM108.92-71.1v-10.67h2.74v10.67h-2.74Z"/>
      <path class="st0" d="M113.09-66.65v-14.51h9.57v2.3h-6.85v9.94h7.86v2.28h-10.58ZM124.64-65.28v-16.49h2.75v6.19h2.3v2.35h-2.3v7.95h-2.75Z"/>
    </g>
  </g>
  <g>
    <g>
      <path class="st3" d="M163.32-100.64c0-2.13-1.73-3.86-3.86-3.86s-3.86,1.73-3.86,3.86,1.73,3.86,3.86,3.86,3.86-1.73,3.86-3.86Z"/>
      <path class="st3" d="M166.54-90.54c.51.53,1.35,1.13,2.6,1.41v-3.54c-.07-.05-.15-.1-.21-.16-.52-.53-.63-1.42-.63-1.75v-9.92h-3.32v9.87c0,.25-.02,2.47,1.56,4.1Z"/>
      <path class="st4" d="M173.2-94.31h6.83v-3.32h-5.8v-3.32h5.8v-3.32h-9.12v7.66c0,1.26,1.03,2.29,2.29,2.29Z"/>
      <path class="st3" d="M172.14-85.18c-3.62,0-6.4-.98-8.28-2.92-2.5-2.58-2.73-6.19-2.75-7.09v-.27h-1.58l-1.73-.06s0,.17,0,.4v12.9h3.32v-3.96c.11.12.22.25.34.37,2.52,2.62,6.12,3.96,10.69,3.96,4.01,0,11.15-2.08,12.89-9.46h-3.45c-1.92,5.9-8.57,6.14-9.44,6.15Z"/>
      <path class="st4" d="M185.42-96.99h2.35v-3.32h-2.35v-4.19h-3.32v9.64c0,.92-.09,1.75-.25,2.5h3.37c.12-.78.19-1.61.19-2.5v-2.13Z"/>
    </g>
    <g>
      <path class="st8" d="M204.77-87.51c-1.58-1.29-2.68-2.85-3.43-4.79-.59,1.93-1.82,3.73-3.53,5.12l-1.23-1.08c2.3-1.76,3.93-4.65,3.93-7.97v-5.82h1.63v5.82c0,3.34,1.56,5.93,3.62,7.51l-.99,1.21ZM207.14-86.43v-8.58h-2.88v-1.41h2.88v-6.13h1.58v16.13h-1.58ZM210.86-86.17v-16.38h1.56v16.38h-1.56Z"/>
      <path class="st8" d="M222.49-91.08v5.09h-1.58v-5.09h-7.57v-1.36h16.71v1.36h-7.57ZM214.91-94.56v-7.66h13.59v7.66h-13.59ZM226.9-100.86h-10.41v4.96h10.41v-4.96Z"/>
      <path class="st8" d="M229.97-87.02v-1.36h16.71v1.36h-16.71ZM243.52-90.78v-9.9h-12.27v-1.38h13.87v11.28h-1.6Z"/>
      <path class="st8" d="M255.77-93.22v1.73h-1.65v-1.73h-7.53v-1.3h16.71v1.3h-7.53ZM248.06-86.26v-5.88h1.58v1.54h10.6v-1.54h1.58v5.88h-13.76ZM248.13-95.78v-4h12.01v-1.43h-12.01v-1.29h13.61v3.97h-12.01v1.45h12.27v1.3h-13.87ZM260.23-89.29h-10.6v1.71h10.6v-1.71Z"/>
      <path class="st9" d="M277.63-97.43c0,2.28-1.78,4.22-5.16,4.22s-5.2-1.95-5.2-4.22v-1.07c0-2.24,1.78-4.21,5.2-4.21s5.16,1.97,5.16,4.21v1.07ZM281.94-85.88c-2.7-.42-4.87-1.6-6.21-3.16-1.34,1.56-3.51,2.74-6.21,3.16l-1.36-2.02c3.49-.55,6.17-2.24,6.17-3.89v-.83h2.79v.83c0,1.65,2.68,3.34,6.17,3.89l-1.36,2.02ZM274.89-98.31c0-1.19-.77-2.15-2.42-2.15s-2.44.96-2.44,2.15v.7c0,1.23.75,2.17,2.44,2.17s2.42-.94,2.42-2.17v-.7ZM279.63-91.94v-10.67h2.74v10.67h-2.74Z"/>
      <path class="st9" d="M283.8-87.49v-14.51h9.57v2.3h-6.85v9.94h7.86v2.28h-10.58ZM295.35-86.12v-16.49h2.75v6.19h2.3v2.35h-2.3v7.95h-2.75Z"/>
    </g>
  </g>
  <g>
    <g>
      <path class="st5" d="M-14.2-212.01c0-2.13-1.73-3.86-3.86-3.86s-3.86,1.73-3.86,3.86,1.73,3.86,3.86,3.86,3.86-1.73,3.86-3.86Z"/>
      <path class="st5" d="M-10.97-201.91c.51.53,1.35,1.13,2.6,1.41v-3.54c-.07-.05-.15-.1-.21-.16-.52-.53-.63-1.42-.63-1.75v-9.92h-3.32v9.87c0,.25-.02,2.47,1.56,4.1Z"/>
      <path class="st7" d="M-4.32-205.68H2.51v-3.32H-3.29v-3.32H2.51v-3.32H-6.6v7.66c0,1.26,1.03,2.29,2.29,2.29Z"/>
      <path class="st5" d="M-5.38-196.55c-3.62,0-6.4-.98-8.28-2.92-2.5-2.58-2.73-6.19-2.75-7.09v-.27h-1.58l-1.73-.06s0,.17,0,.4v12.9h3.32v-3.96c.11.12.22.25.34.37,2.52,2.62,6.12,3.96,10.69,3.96,4.01,0,11.15-2.08,12.89-9.46h-3.45c-1.92,5.9-8.57,6.14-9.44,6.15Z"/>
      <path class="st7" d="M7.9-208.37h2.35v-3.32h-2.35v-4.19h-3.32v9.64c0,.92-.09,1.75-.25,2.5h3.37c.12-.78.19-1.61.19-2.5v-2.13Z"/>
    </g>
    <g>
      <path class="st8" d="M27.25-198.89c-1.58-1.29-2.68-2.85-3.43-4.79-.59,1.93-1.82,3.73-3.53,5.12l-1.23-1.08c2.3-1.76,3.93-4.65,3.93-7.97v-5.82h1.63v5.82c0,3.34,1.56,5.93,3.62,7.51l-.99,1.21ZM29.62-197.8v-8.58h-2.88v-1.41h2.88v-6.13h1.58v16.13h-1.58ZM33.35-197.55v-16.38h1.56v16.38h-1.56Z"/>
      <path class="st8" d="M44.98-202.45v5.09h-1.58v-5.09h-7.57v-1.36h16.71v1.36h-7.57ZM37.39-205.94v-7.66h13.59v7.66h-13.59ZM49.38-212.24h-10.41v4.96h10.41v-4.96Z"/>
      <path class="st8" d="M52.45-198.39v-1.36h16.71v1.36h-16.71ZM66.01-202.16v-9.9h-12.27v-1.38h13.87v11.28h-1.6Z"/>
      <path class="st8" d="M78.26-204.6v1.73h-1.65v-1.73h-7.53v-1.3h16.71v1.3h-7.53ZM70.54-197.64v-5.88h1.58v1.54h10.6v-1.54h1.58v5.88h-13.76ZM70.62-207.15v-4h12.01v-1.43h-12.01v-1.29h13.61v3.97h-12.01v1.45h12.27v1.3h-13.87ZM82.72-200.67h-10.6v1.71h10.6v-1.71Z"/>
      <path class="st7" d="M100.11-208.81c0,2.28-1.78,4.22-5.16,4.22s-5.2-1.95-5.2-4.22v-1.07c0-2.24,1.78-4.21,5.2-4.21s5.16,1.97,5.16,4.21v1.07ZM104.43-197.25c-2.7-.42-4.87-1.6-6.21-3.16-1.34,1.56-3.51,2.74-6.21,3.16l-1.36-2.02c3.49-.55,6.17-2.24,6.17-3.89v-.83h2.79v.83c0,1.65,2.68,3.34,6.17,3.89l-1.36,2.02ZM97.38-209.69c0-1.19-.77-2.15-2.42-2.15s-2.44.96-2.44,2.15v.7c0,1.23.75,2.17,2.44,2.17s2.42-.94,2.42-2.17v-.7ZM102.11-203.31v-10.67h2.74v10.67h-2.74Z"/>
      <path class="st7" d="M106.28-198.87v-14.51h9.57v2.3h-6.85v9.94h7.86v2.28h-10.58ZM117.84-197.49v-16.49h2.75v6.19h2.3v2.35h-2.3v7.95h-2.75Z"/>
    </g>
  </g>
  <g>
    <g>
      <path class="st8" d="M16.14,75.95c-1.47-1.2-2.49-2.65-3.19-4.46-.55,1.79-1.69,3.47-3.28,4.76l-1.14-1.01c2.13-1.64,3.65-4.32,3.65-7.41v-5.41h1.52v5.41c0,3.11,1.45,5.52,3.36,6.98l-.92,1.13ZM18.34,76.96v-7.97h-2.68v-1.31h2.68v-5.7h1.47v14.99h-1.47ZM21.81,77.2v-15.23h1.45v15.23h-1.45Z"/>
      <path class="st8" d="M32.62,72.64v4.73h-1.47v-4.73h-7.04v-1.26h15.54v1.26h-7.03ZM25.57,69.4v-7.12h12.64v7.12h-12.64ZM36.72,63.54h-9.68v4.61h9.68v-4.61Z"/>
      <path class="st8" d="M39.57,76.41v-1.26h15.54v1.26h-15.54ZM52.17,72.91v-9.2h-11.41v-1.28h12.89v10.48h-1.49Z"/>
      <path class="st8" d="M63.56,70.64v1.61h-1.54v-1.61h-7v-1.21h15.54v1.21h-7ZM56.39,77.11v-5.46h1.47v1.43h9.85v-1.43h1.47v5.46h-12.79ZM56.45,68.27v-3.72h11.17v-1.33h-11.17v-1.2h12.65v3.69h-11.17v1.35h11.41v1.21h-12.89ZM67.71,74.3h-9.85v1.59h9.85v-1.59Z"/>
      <path class="st9" d="M83.88,66.73c0,2.12-1.66,3.93-4.8,3.93s-4.83-1.81-4.83-3.93v-.99c0-2.08,1.66-3.91,4.83-3.91s4.8,1.83,4.8,3.91v.99ZM87.89,77.47c-2.51-.39-4.52-1.49-5.77-2.94-1.25,1.45-3.26,2.54-5.77,2.94l-1.26-1.88c3.24-.51,5.74-2.08,5.74-3.62v-.77h2.6v.77c0,1.54,2.49,3.11,5.74,3.62l-1.26,1.88ZM81.33,65.91c0-1.11-.72-2-2.25-2s-2.27.89-2.27,2v.65c0,1.14.7,2.01,2.27,2.01s2.25-.87,2.25-2.01v-.65ZM85.74,71.84v-9.92h2.54v9.92h-2.54Z"/>
      <path class="st9" d="M89.61,75.97v-13.49h8.9v2.13h-6.37v9.24h7.31v2.12h-9.84ZM100.35,77.25v-15.33h2.56v5.75h2.13v2.19h-2.13v7.39h-2.56Z"/>
    </g>
    <g>
      <path class="st9" d="M41.4,16.57c0-3.89-3.15-7.03-7.03-7.03s-7.03,3.15-7.03,7.03,3.15,7.03,7.03,7.03,7.03-3.15,7.03-7.03Z"/>
      <path class="st9" d="M47.28,34.97c.94.96,2.45,2.06,4.73,2.56v-6.45c-.13-.09-.27-.18-.38-.3-.95-.96-1.15-2.59-1.15-3.19V9.53h-6.04v17.97c-.01.45-.04,4.5,2.84,7.46Z"/>
      <path class="st12" d="M59.4,28.1h12.44v-6.04h-10.57v-6.04h10.57v-6.04h-16.61v13.95c0,2.3,1.87,4.16,4.16,4.16Z"/>
      <path class="st9" d="M57.47,44.73c-6.59,0-11.66-1.79-15.07-5.31-4.55-4.69-4.98-11.27-5.01-12.91v-.49h-2.88l-3.16-.12c0,.06-.01.32,0,.72v23.49h6.04v-7.22c.2.23.41.45.62.67,4.6,4.78,11.15,7.2,19.47,7.2,7.31,0,20.31-3.78,23.47-17.24h-6.28c-3.5,10.75-15.61,11.19-17.19,11.2Z"/>
      <path class="st12" d="M81.66,23.21h4.28v-6.04h-4.28v-7.63h-6.04v17.55c0,1.67-.16,3.18-.45,4.56h6.14c.22-1.42.35-2.93.35-4.56v-3.88Z"/>
    </g>
  </g>
</svg>