<?xml version="1.0" encoding="UTF-8"?>
<svg id="Layer_1" xmlns="http://www.w3.org/2000/svg" version="1.1" viewBox="0 0 113.57 87.01">
  <!-- Generator: Adobe Illustrator 29.7.1, SVG Export Plug-In . SVG Version: 2.1.1 Build 8)  -->
  <defs>
    <style>
      .st0 {
        fill: #432817;
      }

      .st1 {
        fill: #404041;
      }

      .st2 {
        fill: #98582a;
      }
    </style>
  </defs>
  <g>
    <path class="st1" d="M16.14,75.95c-1.47-1.2-2.49-2.65-3.19-4.46-.55,1.79-1.69,3.47-3.28,4.76l-1.14-1.01c2.13-1.64,3.65-4.32,3.65-7.41v-5.41h1.52v5.41c0,3.11,1.45,5.52,3.36,6.98l-.92,1.13ZM18.34,76.96v-7.97h-2.68v-1.31h2.68v-5.7h1.47v14.99h-1.47ZM21.81,77.2v-15.23h1.45v15.23h-1.45Z"/>
    <path class="st1" d="M32.62,72.64v4.73h-1.47v-4.73h-7.04v-1.26h15.54v1.26h-7.03ZM25.57,69.4v-7.12h12.64v7.12h-12.64ZM36.72,63.54h-9.68v4.61h9.68v-4.61Z"/>
    <path class="st1" d="M39.57,76.41v-1.26h15.54v1.26h-15.54ZM52.17,72.91v-9.2h-11.41v-1.28h12.89v10.48h-1.49Z"/>
    <path class="st1" d="M63.56,70.64v1.61h-1.54v-1.61h-7v-1.21h15.54v1.21h-7ZM56.39,77.11v-5.46h1.47v1.43h9.85v-1.43h1.47v5.46h-12.79ZM56.45,68.27v-3.72h11.17v-1.33h-11.17v-1.2h12.65v3.69h-11.17v1.35h11.41v1.21h-12.89ZM67.71,74.3h-9.85v1.59h9.85v-1.59Z"/>
    <path class="st0" d="M83.88,66.73c0,2.12-1.66,3.93-4.8,3.93s-4.83-1.81-4.83-3.93v-.99c0-2.08,1.66-3.91,4.83-3.91s4.8,1.83,4.8,3.91v.99ZM87.89,77.47c-2.51-.39-4.52-1.49-5.77-2.94-1.25,1.45-3.26,2.54-5.77,2.94l-1.26-1.88c3.24-.51,5.74-2.08,5.74-3.62v-.77h2.6v.77c0,1.54,2.49,3.11,5.74,3.62l-1.26,1.88ZM81.33,65.91c0-1.11-.72-2-2.25-2s-2.27.89-2.27,2v.65c0,1.14.7,2.01,2.27,2.01s2.25-.87,2.25-2.01v-.65ZM85.74,71.84v-9.92h2.54v9.92h-2.54Z"/>
    <path class="st0" d="M89.61,75.97v-13.49h8.9v2.13h-6.37v9.24h7.31v2.12h-9.84ZM100.35,77.25v-15.33h2.56v5.75h2.13v2.19h-2.13v7.39h-2.56Z"/>
  </g>
  <g>
    <path class="st0" d="M41.4,16.57c0-3.89-3.15-7.03-7.03-7.03s-7.03,3.15-7.03,7.03,3.15,7.03,7.03,7.03,7.03-3.15,7.03-7.03Z"/>
    <path class="st0" d="M47.28,34.97c.94.96,2.45,2.06,4.73,2.56v-6.45c-.13-.09-.27-.18-.38-.3-.95-.96-1.15-2.59-1.15-3.19V9.53h-6.04v17.97c-.01.45-.04,4.5,2.84,7.46Z"/>
    <path class="st2" d="M59.4,28.1h12.44v-6.04h-10.57v-6.04h10.57v-6.04h-16.61v13.95c0,2.3,1.87,4.16,4.16,4.16Z"/>
    <path class="st0" d="M57.47,44.73c-6.59,0-11.66-1.79-15.07-5.31-4.55-4.69-4.98-11.27-5.01-12.91v-.49h-2.88l-3.16-.12c0,.06-.01.32,0,.72v23.49h6.04v-7.22c.2.23.41.45.62.67,4.6,4.78,11.15,7.2,19.47,7.2,7.31,0,20.31-3.78,23.47-17.24h-6.28c-3.5,10.75-15.61,11.19-17.19,11.2Z"/>
    <path class="st2" d="M81.66,23.21h4.28v-6.04h-4.28v-7.63h-6.04v17.55c0,1.67-.16,3.18-.45,4.56h6.14c.22-1.42.35-2.93.35-4.56v-3.88Z"/>
  </g>
</svg>