<?xml version="1.0" encoding="UTF-8"?>
<svg id="Layer_1" xmlns="http://www.w3.org/2000/svg" version="1.1" viewBox="0 0 150 30.97">
  <!-- Generator: Adobe Illustrator 29.7.1, SVG Export Plug-In . SVG Version: 2.1.1 Build 8)  -->
  <defs>
    <style>
      .st0 {
        fill: #432817;
      }

      .st1 {
        fill: #404041;
      }

      .st2 {
        fill: #98582a;
      }
    </style>
  </defs>
  <g>
    <circle class="st0" cx="6.46" cy="8.03" r="3.86"/>
    <path class="st0" d="M13.54,18.13c.51.53,1.35,1.13,2.6,1.41v-3.54c-.07-.05-.15-.1-.21-.16-.52-.53-.63-1.42-.63-1.75V4.17h-3.32v9.87c0,.25-.02,2.47,1.56,4.1h0Z"/>
    <path class="st2" d="M20.2,14.36h6.83v-3.32h-5.8v-3.32h5.8v-3.32h-9.12v7.66c0,1.26,1.03,2.29,2.29,2.29h0Z"/>
    <path class="st0" d="M19.14,23.49c-3.62,0-6.4-.98-8.28-2.92-2.5-2.58-2.73-6.19-2.75-7.09v-.27h-1.58l-1.73-.06v13.3h3.32v-3.96c.11.12.22.25.34.37,2.52,2.62,6.12,3.96,10.69,3.96,4.01,0,11.15-2.08,12.89-9.46h-3.45c-1.92,5.9-8.57,6.14-9.44,6.15v-.02Z"/>
    <path class="st2" d="M32.42,11.67h2.35v-3.32h-2.35v-4.19h-3.32v9.64c0,.92-.09,1.75-.25,2.5h3.37c.12-.78.19-1.61.19-2.5v-2.13h.01Z"/>
  </g>
  <g>
    <path class="st1" d="M51.77,21.15c-1.58-1.29-2.68-2.85-3.43-4.79-.59,1.93-1.82,3.73-3.53,5.12l-1.23-1.08c2.3-1.76,3.93-4.65,3.93-7.97v-5.82h1.63v5.82c0,3.34,1.56,5.93,3.62,7.51,0,0-.99,1.21-.99,1.21ZM54.14,22.24v-8.58h-2.88v-1.41h2.88v-6.13h1.58v16.13h-1.58ZM57.87,22.49V6.11h1.56v16.38h-1.56Z"/>
    <path class="st1" d="M69.49,17.59v5.09h-1.58v-5.09h-7.57v-1.36h16.71v1.36h-7.57.01ZM61.91,14.1v-7.66h13.59v7.66h-13.59ZM73.9,7.8h-10.41v4.96h10.41v-4.96Z"/>
    <path class="st1" d="M76.97,21.65v-1.36h16.71v1.36h-16.71ZM90.52,17.88V7.99h-12.27v-1.38h13.87v11.28h-1.6Z"/>
    <path class="st1" d="M102.77,15.44v1.73h-1.65v-1.73h-7.53v-1.3h16.71v1.3s-7.53,0-7.53,0ZM95.06,22.4v-5.88h1.58v1.54h10.6v-1.54h1.58v5.88s-13.76,0-13.76,0ZM95.13,12.89v-4h12.01v-1.43h-12.01v-1.29h13.61v3.97h-12.01v1.45h12.27v1.3h-13.87ZM107.24,19.37h-10.6v1.71h10.6v-1.71Z"/>
    <path class="st0" d="M124.63,11.24c0,2.28-1.78,4.22-5.16,4.22s-5.2-1.95-5.2-4.22v-1.07c0-2.24,1.78-4.21,5.2-4.21s5.16,1.97,5.16,4.21c0,0,0,1.07,0,1.07ZM128.95,22.79c-2.7-.42-4.87-1.6-6.21-3.16-1.34,1.56-3.51,2.74-6.21,3.16l-1.36-2.02c3.49-.55,6.17-2.24,6.17-3.89v-.83h2.79v.83c0,1.65,2.68,3.34,6.17,3.89l-1.36,2.02h0ZM121.89,10.35c0-1.19-.77-2.15-2.42-2.15s-2.44.96-2.44,2.15v.7c0,1.23.75,2.17,2.44,2.17s2.42-.94,2.42-2.17v-.7ZM126.63,16.73V6.06h2.74v10.67h-2.74Z"/>
    <path class="st0" d="M130.8,21.17V6.66h9.57v2.3h-6.85v9.94h7.86v2.28h-10.58,0ZM142.35,22.55V6.06h2.75v6.19h2.3v2.35h-2.3v7.95h-2.75Z"/>
  </g>
</svg>