<?xml version="1.0" encoding="UTF-8"?>
<svg id="Layer_1" xmlns="http://www.w3.org/2000/svg" version="1.1" viewBox="0 0 150 30.97">
  <!-- Generator: Adobe Illustrator 29.7.1, SVG Export Plug-In . SVG Version: 2.1.1 Build 8)  -->
  <defs>
    <style>
      .st0 {
        fill: #004d61;
      }

      .st1 {
        fill: #432817;
      }

      .st2 {
        fill: #c1121f;
      }

      .st3 {
        fill: #8134af;
      }

      .st4 {
        fill: #515bd4;
      }

      .st5 {
        fill: #f15a29;
      }

      .st6 {
        fill: #780001;
      }

      .st7 {
        fill: #be1e2d;
      }

      .st8 {
        fill: #404041;
      }

      .st9 {
        fill: #2b388f;
      }

      .st10 {
        fill: #348498;
      }

      .st11 {
        fill: #98582a;
      }

      .st12 {
        fill: #262261;
      }
    </style>
  </defs>
  <g>
    <g>
      <circle class="st9" cx="-6.63" cy="-123.89" r="3.86"/>
      <path class="st9" d="M.45-113.78c.51.53,1.35,1.13,2.6,1.41v-3.54c-.07-.05-.15-.1-.21-.16-.52-.53-.63-1.42-.63-1.75v-9.92H-1.11v9.87c0,.25-.02,2.47,1.56,4.1Z"/>
      <path class="st12" d="M7.11-117.55h6.83v-3.32h-5.8v-3.32h5.8v-3.32H4.82v7.66c0,1.26,1.03,2.29,2.29,2.29Z"/>
      <path class="st9" d="M6.05-108.42c-3.62,0-6.4-.98-8.28-2.92-2.5-2.58-2.73-6.19-2.75-7.09v-.27h-1.58l-1.73-.06s0,.17,0,.4v12.9h3.32v-3.96c.11.12.22.25.34.37,2.52,2.62,6.12,3.96,10.69,3.96,4.01,0,11.15-2.08,12.89-9.46h-3.45c-1.92,5.9-8.57,6.14-9.44,6.15Z"/>
      <path class="st12" d="M19.33-120.24h2.35v-3.32h-2.35v-4.19h-3.32v9.64c0,.92-.09,1.75-.25,2.5h3.37c.12-.78.19-1.61.19-2.5v-2.13Z"/>
    </g>
    <g>
      <path class="st8" d="M38.68-110.76c-1.58-1.29-2.68-2.85-3.43-4.79-.59,1.93-1.82,3.73-3.53,5.12l-1.23-1.08c2.3-1.76,3.93-4.65,3.93-7.97v-5.82h1.63v5.82c0,3.34,1.56,5.93,3.62,7.51l-.99,1.21ZM41.05-109.68v-8.58h-2.88v-1.41h2.88v-6.13h1.58v16.13h-1.58ZM44.77-109.42v-16.38h1.56v16.38h-1.56Z"/>
      <path class="st8" d="M56.4-114.32v5.09h-1.58v-5.09h-7.57v-1.36h16.71v1.36h-7.57ZM48.82-117.81v-7.66h13.59v7.66h-13.59ZM60.81-124.11h-10.41v4.96h10.41v-4.96Z"/>
      <path class="st8" d="M63.88-110.26v-1.36h16.71v1.36h-16.71ZM77.43-114.03v-9.9h-12.27v-1.38h13.87v11.28h-1.6Z"/>
      <path class="st8" d="M89.68-116.47v1.73h-1.65v-1.73h-7.53v-1.3h16.71v1.3h-7.53ZM81.97-109.51v-5.88h1.58v1.54h10.6v-1.54h1.58v5.88h-13.76ZM82.04-119.03v-4h12.01v-1.43h-12.01v-1.29h13.61v3.97h-12.01v1.45h12.27v1.3h-13.87ZM94.14-112.54h-10.6v1.71h10.6v-1.71Z"/>
      <path class="st9" d="M111.54-120.68c0,2.28-1.78,4.22-5.16,4.22s-5.2-1.95-5.2-4.22v-1.07c0-2.24,1.78-4.21,5.2-4.21s5.16,1.97,5.16,4.21v1.07ZM115.85-109.13c-2.7-.42-4.87-1.6-6.21-3.16-1.34,1.56-3.51,2.74-6.21,3.16l-1.36-2.02c3.49-.55,6.17-2.24,6.17-3.89v-.83h2.79v.83c0,1.65,2.68,3.34,6.17,3.89l-1.36,2.02ZM108.8-121.56c0-1.19-.77-2.15-2.42-2.15s-2.44.96-2.44,2.15v.7c0,1.23.75,2.17,2.44,2.17s2.42-.94,2.42-2.17v-.7ZM113.54-115.19v-10.67h2.74v10.67h-2.74Z"/>
      <path class="st9" d="M117.71-110.74v-14.51h9.57v2.3h-6.85v9.94h7.86v2.28h-10.58ZM129.26-109.36v-16.49h2.75v6.19h2.3v2.35h-2.3v7.95h-2.75Z"/>
    </g>
  </g>
  <g>
    <g>
      <circle class="st1" cx="217.9" cy="-194.74" r="3.86" transform="translate(50.57 44.85) rotate(-13.28)"/>
      <path class="st1" d="M224.99-184.63c.51.53,1.35,1.13,2.6,1.41v-3.54c-.07-.05-.15-.1-.21-.16-.52-.53-.63-1.42-.63-1.75v-9.92h-3.32v9.87c0,.25-.02,2.47,1.56,4.1Z"/>
      <path class="st11" d="M231.64-188.4h6.83v-3.32h-5.8v-3.32h5.8v-3.32h-9.12v7.66c0,1.26,1.03,2.29,2.29,2.29Z"/>
      <path class="st1" d="M230.59-179.28c-3.62,0-6.4-.98-8.28-2.92-2.5-2.58-2.73-6.19-2.75-7.09v-.27h-1.58l-1.73-.06s0,.17,0,.4v12.9h3.32v-3.96c.11.12.22.25.34.37,2.52,2.62,6.12,3.96,10.69,3.96,4.01,0,11.15-2.08,12.89-9.46h-3.45c-1.92,5.9-8.57,6.14-9.44,6.15Z"/>
      <path class="st11" d="M243.86-191.09h2.35v-3.32h-2.35v-4.19h-3.32v9.64c0,.92-.09,1.75-.25,2.5h3.37c.12-.78.19-1.61.19-2.5v-2.13Z"/>
    </g>
    <g>
      <path class="st8" d="M263.21-181.61c-1.58-1.29-2.68-2.85-3.43-4.79-.59,1.93-1.82,3.73-3.53,5.12l-1.23-1.08c2.3-1.76,3.93-4.65,3.93-7.97v-5.82h1.63v5.82c0,3.34,1.56,5.93,3.62,7.51l-.99,1.21ZM265.58-180.53v-8.58h-2.88v-1.41h2.88v-6.13h1.58v16.13h-1.58ZM269.31-180.27v-16.38h1.56v16.38h-1.56Z"/>
      <path class="st8" d="M280.94-185.17v5.09h-1.58v-5.09h-7.57v-1.36h16.71v1.36h-7.57ZM273.35-188.66v-7.66h13.59v7.66h-13.59ZM285.34-194.96h-10.41v4.96h10.41v-4.96Z"/>
      <path class="st8" d="M288.41-181.11v-1.36h16.71v1.36h-16.71ZM301.97-184.88v-9.9h-12.27v-1.38h13.87v11.28h-1.6Z"/>
      <path class="st8" d="M314.22-187.32v1.73h-1.65v-1.73h-7.53v-1.3h16.71v1.3h-7.53ZM306.5-180.36v-5.88h1.58v1.54h10.6v-1.54h1.58v5.88h-13.76ZM306.58-189.88v-4h12.01v-1.43h-12.01v-1.29h13.61v3.97h-12.01v1.45h12.27v1.3h-13.87ZM318.68-183.39h-10.6v1.71h10.6v-1.71Z"/>
      <path class="st1" d="M336.07-191.53c0,2.28-1.78,4.22-5.16,4.22s-5.2-1.95-5.2-4.22v-1.07c0-2.24,1.78-4.21,5.2-4.21s5.16,1.97,5.16,4.21v1.07ZM340.39-179.98c-2.7-.42-4.87-1.6-6.21-3.16-1.34,1.56-3.51,2.74-6.21,3.16l-1.36-2.02c3.49-.55,6.17-2.24,6.17-3.89v-.83h2.79v.83c0,1.65,2.68,3.34,6.17,3.89l-1.36,2.02ZM333.34-192.41c0-1.19-.77-2.15-2.42-2.15s-2.44.96-2.44,2.15v.7c0,1.23.75,2.17,2.44,2.17s2.42-.94,2.42-2.17v-.7ZM338.07-186.04v-10.67h2.74v10.67h-2.74Z"/>
      <path class="st1" d="M342.24-181.59v-14.51h9.57v2.3h-6.85v9.94h7.86v2.28h-10.58ZM353.8-180.21v-16.49h2.75v6.19h2.3v2.35h-2.3v7.95h-2.75Z"/>
    </g>
  </g>
  <g>
    <g>
      <circle class="st6" cx="212.97" cy="-46.91" r="3.86" transform="translate(16.48 47.68) rotate(-13.28)"/>
      <path class="st6" d="M220.06-36.81c.51.53,1.35,1.13,2.6,1.41v-3.54c-.07-.05-.15-.1-.21-.16-.52-.53-.63-1.42-.63-1.75v-9.92h-3.32v9.87c0,.25-.02,2.47,1.56,4.1Z"/>
      <path class="st2" d="M226.72-40.58h6.83v-3.32h-5.8v-3.32h5.8v-3.32h-9.12v7.66c0,1.26,1.03,2.29,2.29,2.29Z"/>
      <path class="st6" d="M225.66-31.45c-3.62,0-6.4-.98-8.28-2.92-2.5-2.58-2.73-6.19-2.75-7.09v-.27h-1.58l-1.73-.06s0,.17,0,.4v12.9h3.32v-3.96c.11.12.22.25.34.37,2.52,2.62,6.12,3.96,10.69,3.96,4.01,0,11.15-2.08,12.89-9.46h-3.45c-1.92,5.9-8.57,6.14-9.44,6.15Z"/>
      <path class="st2" d="M238.93-43.27h2.35v-3.32h-2.35v-4.19h-3.32v9.64c0,.92-.09,1.75-.25,2.5h3.37c.12-.78.19-1.61.19-2.5v-2.13Z"/>
    </g>
    <g>
      <path class="st8" d="M258.28-33.79c-1.58-1.29-2.68-2.85-3.43-4.79-.59,1.93-1.82,3.73-3.53,5.12l-1.23-1.08c2.3-1.76,3.93-4.65,3.93-7.97v-5.82h1.63v5.82c0,3.34,1.56,5.93,3.62,7.51l-.99,1.21ZM260.65-32.7v-8.58h-2.88v-1.41h2.88v-6.13h1.58v16.13h-1.58ZM264.38-32.45v-16.38h1.56v16.38h-1.56Z"/>
      <path class="st8" d="M276.01-37.35v5.09h-1.58v-5.09h-7.57v-1.36h16.71v1.36h-7.57ZM268.42-40.84v-7.66h13.59v7.66h-13.59ZM280.42-47.14h-10.41v4.96h10.41v-4.96Z"/>
      <path class="st8" d="M283.48-33.29v-1.36h16.71v1.36h-16.71ZM297.04-37.06v-9.9h-12.27v-1.38h13.87v11.28h-1.6Z"/>
      <path class="st8" d="M309.29-39.5v1.73h-1.65v-1.73h-7.53v-1.3h16.71v1.3h-7.53ZM301.57-32.54v-5.88h1.58v1.54h10.6v-1.54h1.58v5.88h-13.76ZM301.65-42.05v-4h12.01v-1.43h-12.01v-1.29h13.61v3.97h-12.01v1.45h12.27v1.3h-13.87ZM313.75-35.57h-10.6v1.71h10.6v-1.71Z"/>
      <path class="st6" d="M331.14-43.71c0,2.28-1.78,4.22-5.16,4.22s-5.2-1.95-5.2-4.22v-1.07c0-2.24,1.78-4.21,5.2-4.21s5.16,1.97,5.16,4.21v1.07ZM335.46-32.15c-2.7-.42-4.87-1.6-6.21-3.16-1.34,1.56-3.51,2.74-6.21,3.16l-1.36-2.02c3.49-.55,6.17-2.24,6.17-3.89v-.83h2.79v.83c0,1.65,2.68,3.34,6.17,3.89l-1.36,2.02ZM328.41-44.59c0-1.19-.77-2.15-2.42-2.15s-2.44.96-2.44,2.15v.7c0,1.23.75,2.17,2.44,2.17s2.42-.94,2.42-2.17v-.7ZM333.15-38.21v-10.67h2.74v10.67h-2.74Z"/>
      <path class="st6" d="M337.32-33.77v-14.51h9.57v2.3h-6.85v9.94h7.86v2.28h-10.58ZM348.87-32.39v-16.49h2.75v6.19h2.3v2.35h-2.3v7.95h-2.75Z"/>
    </g>
  </g>
  <g>
    <g>
      <path class="st0" d="M10.82-79.8c0-2.13-1.73-3.86-3.86-3.86s-3.86,1.73-3.86,3.86,1.73,3.86,3.86,3.86,3.86-1.73,3.86-3.86Z"/>
      <path class="st0" d="M14.04-69.7c.51.53,1.35,1.13,2.6,1.41v-3.54c-.07-.05-.15-.1-.21-.16-.52-.53-.63-1.42-.63-1.75v-9.92h-3.32v9.87c0,.25-.02,2.47,1.56,4.1Z"/>
      <path class="st10" d="M20.7-73.47h6.83v-3.32h-5.8v-3.32h5.8v-3.32h-9.12v7.66c0,1.26,1.03,2.29,2.29,2.29Z"/>
      <path class="st0" d="M19.64-64.34c-3.62,0-6.4-.98-8.28-2.92-2.5-2.58-2.73-6.19-2.75-7.09v-.27h-1.58l-1.73-.06s0,.17,0,.4v12.9h3.32v-3.96c.11.12.22.25.34.37,2.52,2.62,6.12,3.96,10.69,3.96,4.01,0,11.15-2.08,12.89-9.46h-3.45c-1.92,5.9-8.57,6.14-9.44,6.15Z"/>
      <path class="st10" d="M32.92-76.15h2.35v-3.32h-2.35v-4.19h-3.32v9.64c0,.92-.09,1.75-.25,2.5h3.37c.12-.78.19-1.61.19-2.5v-2.13Z"/>
    </g>
    <g>
      <path class="st8" d="M52.27-66.67c-1.58-1.29-2.68-2.85-3.43-4.79-.59,1.93-1.82,3.73-3.53,5.12l-1.23-1.08c2.3-1.76,3.93-4.65,3.93-7.97v-5.82h1.63v5.82c0,3.34,1.56,5.93,3.62,7.51l-.99,1.21ZM54.64-65.59v-8.58h-2.88v-1.41h2.88v-6.13h1.58v16.13h-1.58ZM58.37-65.33v-16.38h1.56v16.38h-1.56Z"/>
      <path class="st8" d="M69.99-70.23v5.09h-1.58v-5.09h-7.57v-1.36h16.71v1.36h-7.57ZM62.41-73.72v-7.66h13.59v7.66h-13.59ZM74.4-80.02h-10.41v4.96h10.41v-4.96Z"/>
      <path class="st8" d="M77.47-66.18v-1.36h16.71v1.36h-16.71ZM91.02-69.94v-9.9h-12.27v-1.38h13.87v11.28h-1.6Z"/>
      <path class="st8" d="M103.27-72.38v1.73h-1.65v-1.73h-7.53v-1.3h16.71v1.3h-7.53ZM95.56-65.42v-5.88h1.58v1.54h10.6v-1.54h1.58v5.88h-13.76ZM95.63-74.94v-4h12.01v-1.43h-12.01v-1.29h13.61v3.97h-12.01v1.45h12.27v1.3h-13.87ZM107.74-68.45h-10.6v1.71h10.6v-1.71Z"/>
      <path class="st0" d="M125.13-76.59c0,2.28-1.78,4.22-5.16,4.22s-5.2-1.95-5.2-4.22v-1.07c0-2.24,1.78-4.21,5.2-4.21s5.16,1.97,5.16,4.21v1.07ZM129.45-65.04c-2.7-.42-4.87-1.6-6.21-3.16-1.34,1.56-3.51,2.74-6.21,3.16l-1.36-2.02c3.49-.55,6.17-2.24,6.17-3.89v-.83h2.79v.83c0,1.65,2.68,3.34,6.17,3.89l-1.36,2.02ZM122.39-77.47c0-1.19-.77-2.15-2.42-2.15s-2.44.96-2.44,2.15v.7c0,1.23.75,2.17,2.44,2.17s2.42-.94,2.42-2.17v-.7ZM127.13-71.1v-10.67h2.74v10.67h-2.74Z"/>
      <path class="st0" d="M131.3-66.65v-14.51h9.57v2.3h-6.85v9.94h7.86v2.28h-10.58ZM142.85-65.28v-16.49h2.75v6.19h2.3v2.35h-2.3v7.95h-2.75Z"/>
    </g>
  </g>
  <g>
    <g>
      <path class="st3" d="M181.53-100.64c0-2.13-1.73-3.86-3.86-3.86s-3.86,1.73-3.86,3.86,1.73,3.86,3.86,3.86,3.86-1.73,3.86-3.86Z"/>
      <path class="st3" d="M184.75-90.54c.51.53,1.35,1.13,2.6,1.41v-3.54c-.07-.05-.15-.1-.21-.16-.52-.53-.63-1.42-.63-1.75v-9.92h-3.32v9.87c0,.25-.02,2.47,1.56,4.1Z"/>
      <path class="st4" d="M191.41-94.31h6.83v-3.32h-5.8v-3.32h5.8v-3.32h-9.12v7.66c0,1.26,1.03,2.29,2.29,2.29Z"/>
      <path class="st3" d="M190.35-85.18c-3.62,0-6.4-.98-8.28-2.92-2.5-2.58-2.73-6.19-2.75-7.09v-.27h-1.58l-1.73-.06s0,.17,0,.4v12.9h3.32v-3.96c.11.12.22.25.34.37,2.52,2.62,6.12,3.96,10.69,3.96,4.01,0,11.15-2.08,12.89-9.46h-3.45c-1.92,5.9-8.57,6.14-9.44,6.15Z"/>
      <path class="st4" d="M203.63-96.99h2.35v-3.32h-2.35v-4.19h-3.32v9.64c0,.92-.09,1.75-.25,2.5h3.37c.12-.78.19-1.61.19-2.5v-2.13Z"/>
    </g>
    <g>
      <path class="st8" d="M222.98-87.51c-1.58-1.29-2.68-2.85-3.43-4.79-.59,1.93-1.82,3.73-3.53,5.12l-1.23-1.08c2.3-1.76,3.93-4.65,3.93-7.97v-5.82h1.63v5.82c0,3.34,1.56,5.93,3.62,7.51l-.99,1.21ZM225.35-86.43v-8.58h-2.88v-1.41h2.88v-6.13h1.58v16.13h-1.58ZM229.08-86.17v-16.38h1.56v16.38h-1.56Z"/>
      <path class="st8" d="M240.7-91.08v5.09h-1.58v-5.09h-7.57v-1.36h16.71v1.36h-7.57ZM233.12-94.56v-7.66h13.59v7.66h-13.59ZM245.11-100.86h-10.41v4.96h10.41v-4.96Z"/>
      <path class="st8" d="M248.18-87.02v-1.36h16.71v1.36h-16.71ZM261.73-90.78v-9.9h-12.27v-1.38h13.87v11.28h-1.6Z"/>
      <path class="st8" d="M273.98-93.22v1.73h-1.65v-1.73h-7.53v-1.3h16.71v1.3h-7.53ZM266.27-86.26v-5.88h1.58v1.54h10.6v-1.54h1.58v5.88h-13.76ZM266.34-95.78v-4h12.01v-1.43h-12.01v-1.29h13.61v3.97h-12.01v1.45h12.27v1.3h-13.87ZM278.45-89.29h-10.6v1.71h10.6v-1.71Z"/>
      <path class="st9" d="M295.84-97.43c0,2.28-1.78,4.22-5.16,4.22s-5.2-1.95-5.2-4.22v-1.07c0-2.24,1.78-4.21,5.2-4.21s5.16,1.97,5.16,4.21v1.07ZM300.16-85.88c-2.7-.42-4.87-1.6-6.21-3.16-1.34,1.56-3.51,2.74-6.21,3.16l-1.36-2.02c3.49-.55,6.17-2.24,6.17-3.89v-.83h2.79v.83c0,1.65,2.68,3.34,6.17,3.89l-1.36,2.02ZM293.1-98.31c0-1.19-.77-2.15-2.42-2.15s-2.44.96-2.44,2.15v.7c0,1.23.75,2.17,2.44,2.17s2.42-.94,2.42-2.17v-.7ZM297.84-91.94v-10.67h2.74v10.67h-2.74Z"/>
      <path class="st9" d="M302.01-87.49v-14.51h9.57v2.3h-6.85v9.94h7.86v2.28h-10.58ZM313.56-86.12v-16.49h2.75v6.19h2.3v2.35h-2.3v7.95h-2.75Z"/>
    </g>
  </g>
  <g>
    <g>
      <path class="st5" d="M10.32,8.03c0-2.13-1.73-3.86-3.86-3.86s-3.86,1.73-3.86,3.86,1.73,3.86,3.86,3.86,3.86-1.73,3.86-3.86Z"/>
      <path class="st5" d="M13.54,18.13c.51.53,1.35,1.13,2.6,1.41v-3.54c-.07-.05-.15-.1-.21-.16-.52-.53-.63-1.42-.63-1.75V4.17h-3.32v9.87c0,.25-.02,2.47,1.56,4.1Z"/>
      <path class="st7" d="M20.2,14.36h6.83v-3.32h-5.8v-3.32h5.8v-3.32h-9.12v7.66c0,1.26,1.03,2.29,2.29,2.29Z"/>
      <path class="st5" d="M19.14,23.49c-3.62,0-6.4-.98-8.28-2.92-2.5-2.58-2.73-6.19-2.75-7.09v-.27h-1.58l-1.73-.06s0,.17,0,.4v12.9h3.32v-3.96c.11.12.22.25.34.37,2.52,2.62,6.12,3.96,10.69,3.96,4.01,0,11.15-2.08,12.89-9.46h-3.45c-1.92,5.9-8.57,6.14-9.44,6.15Z"/>
      <path class="st7" d="M32.42,11.67h2.35v-3.32h-2.35v-4.19h-3.32v9.64c0,.92-.09,1.75-.25,2.5h3.37c.12-.78.19-1.61.19-2.5v-2.13Z"/>
    </g>
    <g>
      <path class="st8" d="M51.77,21.15c-1.58-1.29-2.68-2.85-3.43-4.79-.59,1.93-1.82,3.73-3.53,5.12l-1.23-1.08c2.3-1.76,3.93-4.65,3.93-7.97v-5.82h1.63v5.82c0,3.34,1.56,5.93,3.62,7.51l-.99,1.21ZM54.14,22.24v-8.58h-2.88v-1.41h2.88v-6.13h1.58v16.13h-1.58ZM57.87,22.49V6.11h1.56v16.38h-1.56Z"/>
      <path class="st8" d="M69.49,17.59v5.09h-1.58v-5.09h-7.57v-1.36h16.71v1.36h-7.57ZM61.91,14.1v-7.66h13.59v7.66h-13.59ZM73.9,7.8h-10.41v4.96h10.41v-4.96Z"/>
      <path class="st8" d="M76.97,21.65v-1.36h16.71v1.36h-16.71ZM90.52,17.88V7.99h-12.27v-1.38h13.87v11.28h-1.6Z"/>
      <path class="st8" d="M102.77,15.44v1.73h-1.65v-1.73h-7.53v-1.3h16.71v1.3h-7.53ZM95.06,22.4v-5.88h1.58v1.54h10.6v-1.54h1.58v5.88h-13.76ZM95.13,12.89v-4h12.01v-1.43h-12.01v-1.29h13.61v3.97h-12.01v1.45h12.27v1.3h-13.87ZM107.24,19.37h-10.6v1.71h10.6v-1.71Z"/>
      <path class="st7" d="M124.63,11.24c0,2.28-1.78,4.22-5.16,4.22s-5.2-1.95-5.2-4.22v-1.07c0-2.24,1.78-4.21,5.2-4.21s5.16,1.97,5.16,4.21v1.07ZM128.95,22.79c-2.7-.42-4.87-1.6-6.21-3.16-1.34,1.56-3.51,2.74-6.21,3.16l-1.36-2.02c3.49-.55,6.17-2.24,6.17-3.89v-.83h2.79v.83c0,1.65,2.68,3.34,6.17,3.89l-1.36,2.02ZM121.89,10.35c0-1.19-.77-2.15-2.42-2.15s-2.44.96-2.44,2.15v.7c0,1.23.75,2.17,2.44,2.17s2.42-.94,2.42-2.17v-.7ZM126.63,16.73V6.06h2.74v10.67h-2.74Z"/>
      <path class="st7" d="M130.8,21.17V6.66h9.57v2.3h-6.85v9.94h7.86v2.28h-10.58ZM142.35,22.55V6.06h2.75v6.19h2.3v2.35h-2.3v7.95h-2.75Z"/>
    </g>
  </g>
</svg>