<?xml version="1.0" encoding="UTF-8"?>
<svg id="Layer_1" xmlns="http://www.w3.org/2000/svg" version="1.1" viewBox="0 0 150 30.97">
  <!-- Generator: Adobe Illustrator 29.7.1, SVG Export Plug-In . SVG Version: 2.1.1 Build 8)  -->
  <defs>
    <style>
      .st0 {
        fill: #004d61;
      }

      .st1 {
        fill: #432817;
      }

      .st2 {
        fill: #c1121f;
      }

      .st3 {
        fill: #8134af;
      }

      .st4 {
        fill: #515bd4;
      }

      .st5 {
        fill: #f15a29;
      }

      .st6 {
        fill: #780001;
      }

      .st7 {
        fill: #be1e2d;
      }

      .st8 {
        fill: #404041;
      }

      .st9 {
        fill: #2b388f;
      }

      .st10 {
        fill: #348498;
      }

      .st11 {
        fill: #98582a;
      }

      .st12 {
        fill: #262261;
      }
    </style>
  </defs>
  <g>
    <g>
      <circle class="st9" cx="-6.63" cy="-123.89" r="3.86"/>
      <path class="st9" d="M.45-113.78c.51.53,1.35,1.13,2.6,1.41v-3.54c-.07-.05-.15-.1-.21-.16-.52-.53-.63-1.42-.63-1.75v-9.92H-1.11v9.87c0,.25-.02,2.47,1.56,4.1Z"/>
      <path class="st12" d="M7.11-117.55h6.83v-3.32h-5.8v-3.32h5.8v-3.32H4.82v7.66c0,1.26,1.03,2.29,2.29,2.29Z"/>
      <path class="st9" d="M6.05-108.42c-3.62,0-6.4-.98-8.28-2.92-2.5-2.58-2.73-6.19-2.75-7.09v-.27h-1.58l-1.73-.06s0,.17,0,.4v12.9h3.32v-3.96c.11.12.22.25.34.37,2.52,2.62,6.12,3.96,10.69,3.96,4.01,0,11.15-2.08,12.89-9.46h-3.45c-1.92,5.9-8.57,6.14-9.44,6.15Z"/>
      <path class="st12" d="M19.33-120.24h2.35v-3.32h-2.35v-4.19h-3.32v9.64c0,.92-.09,1.75-.25,2.5h3.37c.12-.78.19-1.61.19-2.5v-2.13Z"/>
    </g>
    <g>
      <path class="st8" d="M38.68-110.76c-1.58-1.29-2.68-2.85-3.43-4.79-.59,1.93-1.82,3.73-3.53,5.12l-1.23-1.08c2.3-1.76,3.93-4.65,3.93-7.97v-5.82h1.63v5.82c0,3.34,1.56,5.93,3.62,7.51l-.99,1.21ZM41.05-109.68v-8.58h-2.88v-1.41h2.88v-6.13h1.58v16.13h-1.58ZM44.77-109.42v-16.38h1.56v16.38h-1.56Z"/>
      <path class="st8" d="M56.4-114.32v5.09h-1.58v-5.09h-7.57v-1.36h16.71v1.36h-7.57ZM48.82-117.81v-7.66h13.59v7.66h-13.59ZM60.81-124.11h-10.41v4.96h10.41v-4.96Z"/>
      <path class="st8" d="M63.88-110.26v-1.36h16.71v1.36h-16.71ZM77.43-114.03v-9.9h-12.27v-1.38h13.87v11.28h-1.6Z"/>
      <path class="st8" d="M89.68-116.47v1.73h-1.65v-1.73h-7.53v-1.3h16.71v1.3h-7.53ZM81.97-109.51v-5.88h1.58v1.54h10.6v-1.54h1.58v5.88h-13.76ZM82.04-119.03v-4h12.01v-1.43h-12.01v-1.29h13.61v3.97h-12.01v1.45h12.27v1.3h-13.87ZM94.14-112.54h-10.6v1.71h10.6v-1.71Z"/>
      <path class="st9" d="M111.54-120.68c0,2.28-1.78,4.22-5.16,4.22s-5.2-1.95-5.2-4.22v-1.07c0-2.24,1.78-4.21,5.2-4.21s5.16,1.97,5.16,4.21v1.07ZM115.85-109.13c-2.7-.42-4.87-1.6-6.21-3.16-1.34,1.56-3.51,2.74-6.21,3.16l-1.36-2.02c3.49-.55,6.17-2.24,6.17-3.89v-.83h2.79v.83c0,1.65,2.68,3.34,6.17,3.89l-1.36,2.02ZM108.8-121.56c0-1.19-.77-2.15-2.42-2.15s-2.44.96-2.44,2.15v.7c0,1.23.75,2.17,2.44,2.17s2.42-.94,2.42-2.17v-.7ZM113.54-115.19v-10.67h2.74v10.67h-2.74Z"/>
      <path class="st9" d="M117.71-110.74v-14.51h9.57v2.3h-6.85v9.94h7.86v2.28h-10.58ZM129.26-109.36v-16.49h2.75v6.19h2.3v2.35h-2.3v7.95h-2.75Z"/>
    </g>
  </g>
  <g>
    <g>
      <circle class="st1" cx="265.87" cy="-25.71" r="3.86" transform="translate(13.02 60.4) rotate(-13.28)"/>
      <path class="st1" d="M272.95-15.61c.51.53,1.35,1.13,2.6,1.41v-3.54c-.07-.05-.15-.1-.21-.16-.52-.53-.63-1.42-.63-1.75v-9.92h-3.32v9.87c0,.25-.02,2.47,1.56,4.1Z"/>
      <path class="st11" d="M279.61-19.38h6.83v-3.32h-5.8v-3.32h5.8v-3.32h-9.12v7.66c0,1.26,1.03,2.29,2.29,2.29Z"/>
      <path class="st1" d="M278.55-10.25c-3.62,0-6.4-.98-8.28-2.92-2.5-2.58-2.73-6.19-2.75-7.09v-.27h-1.58l-1.73-.06s0,.17,0,.4V-7.3h3.32v-3.96c.11.12.22.25.34.37,2.52,2.62,6.12,3.96,10.69,3.96,4.01,0,11.15-2.08,12.89-9.46h-3.45c-1.92,5.9-8.57,6.14-9.44,6.15Z"/>
      <path class="st11" d="M291.83-22.07h2.35v-3.32h-2.35v-4.19h-3.32v9.64c0,.92-.09,1.75-.25,2.5h3.37c.12-.78.19-1.61.19-2.5v-2.13Z"/>
    </g>
    <g>
      <path class="st8" d="M311.18-12.59c-1.58-1.29-2.68-2.85-3.43-4.79-.59,1.93-1.82,3.73-3.53,5.12l-1.23-1.08c2.3-1.76,3.93-4.65,3.93-7.97v-5.82h1.63v5.82c0,3.34,1.56,5.93,3.62,7.51l-.99,1.21ZM313.55-11.51v-8.58h-2.88v-1.41h2.88v-6.13h1.58V-11.51h-1.58ZM317.28-11.25v-16.38h1.56V-11.25h-1.56Z"/>
      <path class="st8" d="M328.9-16.15v5.09h-1.58v-5.09h-7.57v-1.36h16.71v1.36h-7.57ZM321.32-19.64v-7.66h13.59v7.66h-13.59ZM333.31-25.94h-10.41v4.96h10.41v-4.96Z"/>
      <path class="st8" d="M336.38-12.09v-1.36h16.71v1.36h-16.71ZM349.93-15.86v-9.9h-12.27v-1.38h13.87v11.28h-1.6Z"/>
      <path class="st8" d="M362.18-18.3v1.73h-1.65v-1.73h-7.53v-1.3h16.71v1.3h-7.53ZM354.47-11.34v-5.88h1.58v1.54h10.6v-1.54h1.58v5.88h-13.76ZM354.54-20.85v-4h12.01v-1.43h-12.01v-1.29h13.61v3.97h-12.01v1.45h12.27v1.3h-13.87ZM366.65-14.37h-10.6v1.71h10.6v-1.71Z"/>
      <path class="st1" d="M384.04-22.51c0,2.28-1.78,4.22-5.16,4.22s-5.2-1.95-5.2-4.22v-1.07c0-2.24,1.78-4.21,5.2-4.21s5.16,1.97,5.16,4.21v1.07ZM388.36-10.95c-2.7-.42-4.87-1.6-6.21-3.16-1.34,1.56-3.51,2.74-6.21,3.16l-1.36-2.02c3.49-.55,6.17-2.24,6.17-3.89v-.83h2.79v.83c0,1.65,2.68,3.34,6.17,3.89l-1.36,2.02ZM381.3-23.39c0-1.19-.77-2.15-2.42-2.15s-2.44.96-2.44,2.15v.7c0,1.23.75,2.17,2.44,2.17s2.42-.94,2.42-2.17v-.7ZM386.04-17.02v-10.67h2.74v10.67h-2.74Z"/>
      <path class="st1" d="M390.21-12.57v-14.51h9.57v2.3h-6.85v9.94h7.86v2.28h-10.58ZM401.76-11.19v-16.49h2.75v6.19h2.3v2.35h-2.3v7.95h-2.75Z"/>
    </g>
  </g>
  <g>
    <g>
      <circle class="st6" cx="265.87" cy="42.76" r="3.86" transform="translate(-2.71 62.23) rotate(-13.28)"/>
      <path class="st6" d="M272.95,52.86c.51.53,1.35,1.13,2.6,1.41v-3.54c-.07-.05-.15-.1-.21-.16-.52-.53-.63-1.42-.63-1.75v-9.92h-3.32v9.87c0,.25-.02,2.47,1.56,4.1Z"/>
      <path class="st2" d="M279.61,49.09h6.83v-3.32h-5.8v-3.32h5.8v-3.32h-9.12v7.66c0,1.26,1.03,2.29,2.29,2.29Z"/>
      <path class="st6" d="M278.55,58.22c-3.62,0-6.4-.98-8.28-2.92-2.5-2.58-2.73-6.19-2.75-7.09v-.27h-1.58l-1.73-.06s0,.17,0,.4v12.9h3.32v-3.96c.11.12.22.25.34.37,2.52,2.62,6.12,3.96,10.69,3.96,4.01,0,11.15-2.08,12.89-9.46h-3.45c-1.92,5.9-8.57,6.14-9.44,6.15Z"/>
      <path class="st2" d="M291.83,46.41h2.35v-3.32h-2.35v-4.19h-3.32v9.64c0,.92-.09,1.75-.25,2.5h3.37c.12-.78.19-1.61.19-2.5v-2.13Z"/>
    </g>
    <g>
      <path class="st8" d="M311.18,55.89c-1.58-1.29-2.68-2.85-3.43-4.79-.59,1.93-1.82,3.73-3.53,5.12l-1.23-1.08c2.3-1.76,3.93-4.65,3.93-7.97v-5.82h1.63v5.82c0,3.34,1.56,5.93,3.62,7.51l-.99,1.21ZM313.55,56.97v-8.58h-2.88v-1.41h2.88v-6.13h1.58v16.13h-1.58ZM317.28,57.23v-16.38h1.56v16.38h-1.56Z"/>
      <path class="st8" d="M328.9,52.32v5.09h-1.58v-5.09h-7.57v-1.36h16.71v1.36h-7.57ZM321.32,48.83v-7.66h13.59v7.66h-13.59ZM333.31,42.53h-10.41v4.96h10.41v-4.96Z"/>
      <path class="st8" d="M336.38,56.38v-1.36h16.71v1.36h-16.71ZM349.93,52.62v-9.9h-12.27v-1.38h13.87v11.28h-1.6Z"/>
      <path class="st8" d="M362.18,50.18v1.73h-1.65v-1.73h-7.53v-1.3h16.71v1.3h-7.53ZM354.47,57.14v-5.88h1.58v1.54h10.6v-1.54h1.58v5.88h-13.76ZM354.54,47.62v-4h12.01v-1.43h-12.01v-1.29h13.61v3.97h-12.01v1.45h12.27v1.3h-13.87ZM366.65,54.11h-10.6v1.71h10.6v-1.71Z"/>
      <path class="st6" d="M384.04,45.97c0,2.28-1.78,4.22-5.16,4.22s-5.2-1.95-5.2-4.22v-1.07c0-2.24,1.78-4.21,5.2-4.21s5.16,1.97,5.16,4.21v1.07ZM388.36,57.52c-2.7-.42-4.87-1.6-6.21-3.16-1.34,1.56-3.51,2.74-6.21,3.16l-1.36-2.02c3.49-.55,6.17-2.24,6.17-3.89v-.83h2.79v.83c0,1.65,2.68,3.34,6.17,3.89l-1.36,2.02ZM381.3,45.09c0-1.19-.77-2.15-2.42-2.15s-2.44.96-2.44,2.15v.7c0,1.23.75,2.17,2.44,2.17s2.42-.94,2.42-2.17v-.7ZM386.04,51.46v-10.67h2.74v10.67h-2.74Z"/>
      <path class="st6" d="M390.21,55.91v-14.51h9.57v2.3h-6.85v9.94h7.86v2.28h-10.58ZM401.76,57.28v-16.49h2.75v6.19h2.3v2.35h-2.3v7.95h-2.75Z"/>
    </g>
  </g>
  <g>
    <g>
      <path class="st0" d="M10.32,8.03c0-2.13-1.73-3.86-3.86-3.86s-3.86,1.73-3.86,3.86,1.73,3.86,3.86,3.86,3.86-1.73,3.86-3.86Z"/>
      <path class="st0" d="M13.54,18.13c.51.53,1.35,1.13,2.6,1.41v-3.54c-.07-.05-.15-.1-.21-.16-.52-.53-.63-1.42-.63-1.75V4.17h-3.32v9.87c0,.25-.02,2.47,1.56,4.1Z"/>
      <path class="st10" d="M20.2,14.36h6.83v-3.32h-5.8v-3.32h5.8v-3.32h-9.12v7.66c0,1.26,1.03,2.29,2.29,2.29Z"/>
      <path class="st0" d="M19.14,23.49c-3.62,0-6.4-.98-8.28-2.92-2.5-2.58-2.73-6.19-2.75-7.09v-.27h-1.58l-1.73-.06s0,.17,0,.4v12.9h3.32v-3.96c.11.12.22.25.34.37,2.52,2.62,6.12,3.96,10.69,3.96,4.01,0,11.15-2.08,12.89-9.46h-3.45c-1.92,5.9-8.57,6.14-9.44,6.15Z"/>
      <path class="st10" d="M32.42,11.67h2.35v-3.32h-2.35v-4.19h-3.32v9.64c0,.92-.09,1.75-.25,2.5h3.37c.12-.78.19-1.61.19-2.5v-2.13Z"/>
    </g>
    <g>
      <path class="st8" d="M51.77,21.15c-1.58-1.29-2.68-2.85-3.43-4.79-.59,1.93-1.82,3.73-3.53,5.12l-1.23-1.08c2.3-1.76,3.93-4.65,3.93-7.97v-5.82h1.63v5.82c0,3.34,1.56,5.93,3.62,7.51l-.99,1.21ZM54.14,22.24v-8.58h-2.88v-1.41h2.88v-6.13h1.58v16.13h-1.58ZM57.87,22.49V6.11h1.56v16.38h-1.56Z"/>
      <path class="st8" d="M69.49,17.59v5.09h-1.58v-5.09h-7.57v-1.36h16.71v1.36h-7.57ZM61.91,14.1v-7.66h13.59v7.66h-13.59ZM73.9,7.8h-10.41v4.96h10.41v-4.96Z"/>
      <path class="st8" d="M76.97,21.65v-1.36h16.71v1.36h-16.71ZM90.52,17.88V7.99h-12.27v-1.38h13.87v11.28h-1.6Z"/>
      <path class="st8" d="M102.77,15.44v1.73h-1.65v-1.73h-7.53v-1.3h16.71v1.3h-7.53ZM95.06,22.4v-5.88h1.58v1.54h10.6v-1.54h1.58v5.88h-13.76ZM95.13,12.89v-4h12.01v-1.43h-12.01v-1.29h13.61v3.97h-12.01v1.45h12.27v1.3h-13.87ZM107.24,19.37h-10.6v1.71h10.6v-1.71Z"/>
      <path class="st0" d="M124.63,11.24c0,2.28-1.78,4.22-5.16,4.22s-5.2-1.95-5.2-4.22v-1.07c0-2.24,1.78-4.21,5.2-4.21s5.16,1.97,5.16,4.21v1.07ZM128.95,22.79c-2.7-.42-4.87-1.6-6.21-3.16-1.34,1.56-3.51,2.74-6.21,3.16l-1.36-2.02c3.49-.55,6.17-2.24,6.17-3.89v-.83h2.79v.83c0,1.65,2.68,3.34,6.17,3.89l-1.36,2.02ZM121.89,10.35c0-1.19-.77-2.15-2.42-2.15s-2.44.96-2.44,2.15v.7c0,1.23.75,2.17,2.44,2.17s2.42-.94,2.42-2.17v-.7ZM126.63,16.73V6.06h2.74v10.67h-2.74Z"/>
      <path class="st0" d="M130.8,21.17V6.66h9.57v2.3h-6.85v9.94h7.86v2.28h-10.58ZM142.35,22.55V6.06h2.75v6.19h2.3v2.35h-2.3v7.95h-2.75Z"/>
    </g>
  </g>
  <g>
    <g>
      <path class="st3" d="M473.83-25.71c0-2.13-1.73-3.86-3.86-3.86s-3.86,1.73-3.86,3.86,1.73,3.86,3.86,3.86,3.86-1.73,3.86-3.86Z"/>
      <path class="st3" d="M477.06-15.61c.51.53,1.35,1.13,2.6,1.41v-3.54c-.07-.05-.15-.1-.21-.16-.52-.53-.63-1.42-.63-1.75v-9.92h-3.32v9.87c0,.25-.02,2.47,1.56,4.1Z"/>
      <path class="st4" d="M483.71-19.38h6.83v-3.32h-5.8v-3.32h5.8v-3.32h-9.12v7.66c0,1.26,1.03,2.29,2.29,2.29Z"/>
      <path class="st3" d="M482.65-10.25c-3.62,0-6.4-.98-8.28-2.92-2.5-2.58-2.73-6.19-2.75-7.09v-.27h-1.58l-1.73-.06s0,.17,0,.4V-7.3h3.32v-3.96c.11.12.22.25.34.37,2.52,2.62,6.12,3.96,10.69,3.96,4.01,0,11.15-2.08,12.89-9.46h-3.45c-1.92,5.9-8.57,6.14-9.44,6.15Z"/>
      <path class="st4" d="M495.93-22.07h2.35v-3.32h-2.35v-4.19h-3.32v9.64c0,.92-.09,1.75-.25,2.5h3.37c.12-.78.19-1.61.19-2.5v-2.13Z"/>
    </g>
    <g>
      <path class="st8" d="M515.28-12.59c-1.58-1.29-2.68-2.85-3.43-4.79-.59,1.93-1.82,3.73-3.53,5.12l-1.23-1.08c2.3-1.76,3.93-4.65,3.93-7.97v-5.82h1.63v5.82c0,3.34,1.56,5.93,3.62,7.51l-.99,1.21ZM517.65-11.51v-8.58h-2.88v-1.41h2.88v-6.13h1.58V-11.51h-1.58ZM521.38-11.25v-16.38h1.56V-11.25h-1.56Z"/>
      <path class="st8" d="M533-16.15v5.09h-1.58v-5.09h-7.57v-1.36h16.71v1.36h-7.57ZM525.42-19.64v-7.66h13.59v7.66h-13.59ZM537.41-25.94h-10.41v4.96h10.41v-4.96Z"/>
      <path class="st8" d="M540.48-12.09v-1.36h16.71v1.36h-16.71ZM554.03-15.86v-9.9h-12.27v-1.38h13.87v11.28h-1.6Z"/>
      <path class="st8" d="M566.29-18.3v1.73h-1.65v-1.73h-7.53v-1.3h16.71v1.3h-7.53ZM558.57-11.34v-5.88h1.58v1.54h10.6v-1.54h1.58v5.88h-13.76ZM558.64-20.85v-4h12.01v-1.43h-12.01v-1.29h13.61v3.97h-12.01v1.45h12.27v1.3h-13.87ZM570.75-14.37h-10.6v1.71h10.6v-1.71Z"/>
      <path class="st9" d="M588.14-22.51c0,2.28-1.78,4.22-5.16,4.22s-5.2-1.95-5.2-4.22v-1.07c0-2.24,1.78-4.21,5.2-4.21s5.16,1.97,5.16,4.21v1.07ZM592.46-10.95c-2.7-.42-4.87-1.6-6.21-3.16-1.34,1.56-3.51,2.74-6.21,3.16l-1.36-2.02c3.49-.55,6.17-2.24,6.17-3.89v-.83h2.79v.83c0,1.65,2.68,3.34,6.17,3.89l-1.36,2.02ZM585.4-23.39c0-1.19-.77-2.15-2.42-2.15s-2.44.96-2.44,2.15v.7c0,1.23.75,2.17,2.44,2.17s2.42-.94,2.42-2.17v-.7ZM590.14-17.02v-10.67h2.74v10.67h-2.74Z"/>
      <path class="st9" d="M594.31-12.57v-14.51h9.57v2.3h-6.85v9.94h7.86v2.28h-10.58ZM605.87-11.19v-16.49h2.75v6.19h2.3v2.35h-2.3v7.95h-2.75Z"/>
    </g>
  </g>
  <g>
    <g>
      <path class="st5" d="M473.83,42.76c0-2.13-1.73-3.86-3.86-3.86s-3.86,1.73-3.86,3.86,1.73,3.86,3.86,3.86,3.86-1.73,3.86-3.86Z"/>
      <path class="st5" d="M477.06,52.86c.51.53,1.35,1.13,2.6,1.41v-3.54c-.07-.05-.15-.1-.21-.16-.52-.53-.63-1.42-.63-1.75v-9.92h-3.32v9.87c0,.25-.02,2.47,1.56,4.1Z"/>
      <path class="st7" d="M483.71,49.09h6.83v-3.32h-5.8v-3.32h5.8v-3.32h-9.12v7.66c0,1.26,1.03,2.29,2.29,2.29Z"/>
      <path class="st5" d="M482.65,58.22c-3.62,0-6.4-.98-8.28-2.92-2.5-2.58-2.73-6.19-2.75-7.09v-.27h-1.58l-1.73-.06s0,.17,0,.4v12.9h3.32v-3.96c.11.12.22.25.34.37,2.52,2.62,6.12,3.96,10.69,3.96,4.01,0,11.15-2.08,12.89-9.46h-3.45c-1.92,5.9-8.57,6.14-9.44,6.15Z"/>
      <path class="st7" d="M495.93,46.41h2.35v-3.32h-2.35v-4.19h-3.32v9.64c0,.92-.09,1.75-.25,2.5h3.37c.12-.78.19-1.61.19-2.5v-2.13Z"/>
    </g>
    <g>
      <path class="st8" d="M515.28,55.89c-1.58-1.29-2.68-2.85-3.43-4.79-.59,1.93-1.82,3.73-3.53,5.12l-1.23-1.08c2.3-1.76,3.93-4.65,3.93-7.97v-5.82h1.63v5.82c0,3.34,1.56,5.93,3.62,7.51l-.99,1.21ZM517.65,56.97v-8.58h-2.88v-1.41h2.88v-6.13h1.58v16.13h-1.58ZM521.38,57.23v-16.38h1.56v16.38h-1.56Z"/>
      <path class="st8" d="M533,52.32v5.09h-1.58v-5.09h-7.57v-1.36h16.71v1.36h-7.57ZM525.42,48.83v-7.66h13.59v7.66h-13.59ZM537.41,42.53h-10.41v4.96h10.41v-4.96Z"/>
      <path class="st8" d="M540.48,56.38v-1.36h16.71v1.36h-16.71ZM554.03,52.62v-9.9h-12.27v-1.38h13.87v11.28h-1.6Z"/>
      <path class="st8" d="M566.29,50.18v1.73h-1.65v-1.73h-7.53v-1.3h16.71v1.3h-7.53ZM558.57,57.14v-5.88h1.58v1.54h10.6v-1.54h1.58v5.88h-13.76ZM558.64,47.62v-4h12.01v-1.43h-12.01v-1.29h13.61v3.97h-12.01v1.45h12.27v1.3h-13.87ZM570.75,54.11h-10.6v1.71h10.6v-1.71Z"/>
      <path class="st7" d="M588.14,45.97c0,2.28-1.78,4.22-5.16,4.22s-5.2-1.95-5.2-4.22v-1.07c0-2.24,1.78-4.21,5.2-4.21s5.16,1.97,5.16,4.21v1.07ZM592.46,57.52c-2.7-.42-4.87-1.6-6.21-3.16-1.34,1.56-3.51,2.74-6.21,3.16l-1.36-2.02c3.49-.55,6.17-2.24,6.17-3.89v-.83h2.79v.83c0,1.65,2.68,3.34,6.17,3.89l-1.36,2.02ZM585.4,45.09c0-1.19-.77-2.15-2.42-2.15s-2.44.96-2.44,2.15v.7c0,1.23.75,2.17,2.44,2.17s2.42-.94,2.42-2.17v-.7ZM590.14,51.46v-10.67h2.74v10.67h-2.74Z"/>
      <path class="st7" d="M594.31,55.91v-14.51h9.57v2.3h-6.85v9.94h7.86v2.28h-10.58ZM605.87,57.28v-16.49h2.75v6.19h2.3v2.35h-2.3v7.95h-2.75Z"/>
    </g>
  </g>
</svg>